<svg width="32" height="32" viewBox="0 0 32 32" fill="none" xmlns="http://www.w3.org/2000/svg">
<rect width="32" height="32" rx="16" fill="#4B525A"/>
<path d="M21 21.7167H20.3667C19.7 21.7167 19.0667 21.975 18.6 22.4417L17.175 23.85C16.525 24.4917 15.4667 24.4917 14.8167 23.85L13.3917 22.4417C12.925 21.975 12.2833 21.7167 11.625 21.7167H11C9.61667 21.7167 8.5 20.6084 8.5 19.2417V10.15C8.5 8.78336 9.61667 7.67505 11 7.67505H21C22.3833 7.67505 23.5 8.78336 23.5 10.15V19.2417C23.5 20.6001 22.3833 21.7167 21 21.7167Z" stroke="white" stroke-width="1.5" stroke-miterlimit="10" stroke-linecap="round" stroke-linejoin="round"/>
<path d="M16.0003 14.3334C17.0726 14.3334 17.942 13.4641 17.942 12.3917C17.942 11.3194 17.0726 10.4501 16.0003 10.4501C14.9279 10.4501 14.0586 11.3194 14.0586 12.3917C14.0586 13.4641 14.9279 14.3334 16.0003 14.3334Z" stroke="white" stroke-width="1.5" stroke-linecap="round" stroke-linejoin="round"/>
<path d="M19.3327 19.05C19.3327 17.55 17.841 16.3334 15.9993 16.3334C14.1577 16.3334 12.666 17.55 12.666 19.05" stroke="white" stroke-width="1.5" stroke-linecap="round" stroke-linejoin="round"/>
</svg>
