<svg width="49" height="48" viewBox="0 0 49 48" fill="none" xmlns="http://www.w3.org/2000/svg">
<rect x="0.800781" width="48" height="48" rx="24" fill="#D7E6F9"/>
<path d="M24.8008 33C29.7713 33 33.8008 28.9706 33.8008 24C33.8008 19.0294 29.7713 15 24.8008 15C19.8302 15 15.8008 19.0294 15.8008 24C15.8008 28.9706 19.8302 33 24.8008 33Z" stroke="#1877F2" stroke-width="2" stroke-linecap="round" stroke-linejoin="round"/>
<path d="M28.5508 20.25H27.0508C26.755 20.2488 26.4618 20.3061 26.1883 20.4188C25.9148 20.5314 25.6662 20.6971 25.457 20.9063C25.2479 21.1154 25.0822 21.364 24.9695 21.6375C24.8569 21.9111 24.7996 22.2042 24.8008 22.5V33" stroke="#1877F2" stroke-width="2" stroke-linecap="round" stroke-linejoin="round"/>
<path d="M21.8008 25.5H27.8008" stroke="#1877F2" stroke-width="2" stroke-linecap="round" stroke-linejoin="round"/>
</svg>
