<svg width="32" height="32" viewBox="0 0 32 32" fill="none" xmlns="http://www.w3.org/2000/svg">
<rect width="32" height="32" rx="16" fill="#4B525A"/>
<path d="M16.441 23.0166H11.1743C8.54102 23.0166 7.66602 21.2666 7.66602 19.5083V12.4916C7.66602 9.85828 8.54102 8.98328 11.1743 8.98328H16.441C19.0743 8.98328 19.9493 9.85828 19.9493 12.4916V19.5083C19.9493 22.1416 19.066 23.0166 16.441 23.0166Z" stroke="white" stroke-width="1.5" stroke-linecap="round" stroke-linejoin="round"/>
<path d="M22.2659 20.25L19.9492 18.625V13.3667L22.2659 11.7417C23.3992 10.95 24.3326 11.4333 24.3326 12.825V19.175C24.3326 20.5667 23.3992 21.05 22.2659 20.25Z" stroke="white" stroke-width="1.5" stroke-linecap="round" stroke-linejoin="round"/>
<path d="M15.584 15.1666C16.2743 15.1666 16.834 14.607 16.834 13.9166C16.834 13.2263 16.2743 12.6666 15.584 12.6666C14.8936 12.6666 14.334 13.2263 14.334 13.9166C14.334 14.607 14.8936 15.1666 15.584 15.1666Z" stroke="white" stroke-width="1.5" stroke-linecap="round" stroke-linejoin="round"/>
</svg>
