<svg width="32" height="32" viewBox="0 0 32 32" fill="none" xmlns="http://www.w3.org/2000/svg">
<rect width="32" height="32" rx="16" fill="#CCB0EF"/>
<path d="M24.3327 9.89174V19.9501C24.3327 20.7501 23.6827 21.5001 22.8827 21.6001L22.6077 21.6334C20.791 21.8751 17.991 22.8001 16.391 23.6834C16.1743 23.8084 15.816 23.8084 15.591 23.6834L15.5577 23.6668C13.9577 22.7918 11.166 21.8751 9.35771 21.6334L9.11601 21.6001C8.31601 21.5001 7.66602 20.7501 7.66602 19.9501V9.8834C7.66602 8.89173 8.47433 8.14174 9.46599 8.22508C11.216 8.36674 13.866 9.2501 15.3493 10.1751L15.5577 10.3001C15.7993 10.4501 16.1994 10.4501 16.441 10.3001L16.5827 10.2084C17.1077 9.88341 17.7743 9.55841 18.4993 9.26674V12.6668L20.166 11.5584L21.8327 12.6668V8.31678C22.0577 8.27511 22.2744 8.25008 22.4744 8.23342H22.5244C23.516 8.15008 24.3327 8.89174 24.3327 9.89174Z" stroke="white" stroke-width="1.5" stroke-linecap="round" stroke-linejoin="round"/>
<path d="M16 10.575V23.075" stroke="white" stroke-width="1.5" stroke-linecap="round" stroke-linejoin="round"/>
<path d="M21.8333 8.31665V12.6666L20.1667 11.5583L18.5 12.6666V9.26661C19.5917 8.83328 20.8083 8.48332 21.8333 8.31665Z" stroke="white" stroke-width="1.5" stroke-linecap="round" stroke-linejoin="round"/>
</svg>
