<svg width="49" height="48" viewBox="0 0 49 48" fill="none" xmlns="http://www.w3.org/2000/svg">
<rect x="0.201172" width="48" height="48" rx="24" fill="#F9D7DD"/>
<path d="M24.2012 27.75C26.2722 27.75 27.9512 26.0711 27.9512 24C27.9512 21.9289 26.2722 20.25 24.2012 20.25C22.1301 20.25 20.4512 21.9289 20.4512 24C20.4512 26.0711 22.1301 27.75 24.2012 27.75Z" stroke="#E4405F" stroke-width="2" stroke-miterlimit="10"/>
<path d="M28.3262 15.375H20.0762C17.5909 15.375 15.5762 17.3897 15.5762 19.875V28.125C15.5762 30.6103 17.5909 32.625 20.0762 32.625H28.3262C30.8115 32.625 32.8262 30.6103 32.8262 28.125V19.875C32.8262 17.3897 30.8115 15.375 28.3262 15.375Z" stroke="#E4405F" stroke-width="2" stroke-linecap="round" stroke-linejoin="round"/>
<path d="M29.0762 20.25C29.6975 20.25 30.2012 19.7463 30.2012 19.125C30.2012 18.5037 29.6975 18 29.0762 18C28.4549 18 27.9512 18.5037 27.9512 19.125C27.9512 19.7463 28.4549 20.25 29.0762 20.25Z" fill="#E4405F"/>
</svg>
