<svg width="32" height="32" viewBox="0 0 32 32" fill="none" xmlns="http://www.w3.org/2000/svg">
<path d="M7.75919 20.7209C4.87798 21.623 3.1041 24.2458 3.32749 27.7187C3.3601 28.2289 3.76221 28.6406 4.2724 28.6745C6.54078 28.8242 8.45232 28.1268 9.75647 26.8227C10.4532 26.1259 10.9701 25.2511 11.284 24.2452L7.75919 20.7216V20.7209Z" fill="#FFBF55"/>
<path d="M10.7247 25.5377L9.37402 24.1871C8.67748 23.4912 7.7346 23.0981 6.75002 23.093C5.51289 23.087 4.30595 23.6847 3.64844 24.8561C4.26429 22.8304 5.73991 21.3542 7.76014 20.7202L11.2862 24.2463C11.142 24.6942 10.9539 25.1268 10.7247 25.5377Z" fill="#FF9F00"/>
<path d="M8.61391 21.5759C7.12803 22.0408 6.21331 23.3933 6.32803 25.1847C6.3355 25.3122 6.38914 25.4325 6.47893 25.5233C6.56872 25.6141 6.6885 25.6691 6.81588 25.678C7.98539 25.7546 8.97135 25.3954 9.64395 24.7228C10.0108 24.3503 10.2813 23.8939 10.4319 23.3933L8.61391 21.5759Z" fill="#FEDF00"/>
<path d="M9.76887 24.5814L9.374 24.1871C8.67745 23.4912 7.73458 23.0981 6.75 23.0931C7.14487 22.3643 7.79634 21.8318 8.61506 21.5752L10.4324 23.3926C10.2983 23.8318 10.0718 24.2373 9.76826 24.582L9.76887 24.5814Z" fill="#F7E839"/>
<path d="M7.42001 15.61C7.12115 15.5979 6.81624 15.604 6.51737 15.6281C5.37965 15.7039 4.26648 15.9939 3.23647 16.4831C2.77579 16.704 2.24386 16.6026 1.87918 16.2379L1.87315 16.2319C1.68785 16.0504 1.56576 15.8142 1.52489 15.5581C1.48401 15.302 1.52652 15.0395 1.64613 14.8094C2.19813 13.6836 2.9335 12.6575 3.82213 11.773C5.68651 9.91386 8.12653 8.74227 10.7432 8.44984C11.1495 8.41362 11.5498 8.38403 11.9568 8.38403C10.0138 10.4224 8.46575 12.8671 7.42001 15.61ZM17.2042 30.3674C16.9737 30.4857 16.7115 30.5274 16.4557 30.4865C16.1998 30.4456 15.9637 30.3241 15.7817 30.1398L15.7696 30.1277C15.5936 29.9546 15.4755 29.7312 15.4316 29.4883C15.3877 29.2454 15.4202 28.9948 15.5245 28.7711C16.0138 27.7393 16.3019 26.6238 16.3734 25.4841C16.4036 25.1792 16.4096 24.8743 16.3975 24.5634C19.1048 23.5418 21.5556 22.0112 23.6175 20.0453C23.6114 20.4577 23.5933 20.8701 23.5396 21.2704C23.3307 23.3202 22.5771 25.3048 21.2863 26.9899C20.1747 28.4366 18.7999 29.5723 17.2042 30.3674Z" fill="#FFB30F"/>
<path d="M11.9553 8.38403C10.0129 10.4224 8.46546 12.8671 7.41912 15.61C7.20202 15.6 6.98453 15.6021 6.76765 15.616C6.68372 15.616 6.59437 15.6221 6.51648 15.6281C6.78339 14.8904 7.08809 14.1669 7.42939 13.4606C8.13037 12.0097 6.6644 10.4942 5.2075 11.1813C4.45942 11.5339 3.77655 11.9258 3.30078 12.3406C3.46259 12.1437 3.64191 11.9523 3.82123 11.773C5.68562 9.91386 8.12564 8.74227 10.7423 8.44984C11.1486 8.41362 11.5483 8.38403 11.9553 8.38403ZM19.6655 28.7173C19.8393 28.5205 20.0066 28.317 20.1738 28.1015C20.4606 27.7271 20.7323 27.229 20.9817 26.6796C21.6386 25.2305 20.1171 23.7899 18.6898 24.4933C17.9356 24.8646 17.1621 25.1951 16.3725 25.4835C16.3846 25.4002 16.3906 25.3108 16.3906 25.2269C16.4087 25.0059 16.4027 24.7849 16.3966 24.5634C19.104 23.5418 21.5547 22.0112 23.6166 20.0453C23.6105 20.4577 23.5924 20.8701 23.5387 21.2704C23.3298 23.3202 22.5763 25.3048 21.2854 26.9899C20.8019 27.6162 20.2595 28.1947 19.6655 28.7173Z" fill="#B57F0B"/>
<path d="M24.0346 19.6505C21.1299 22.5553 17.4004 24.5876 13.2525 25.5198C12.5943 25.6635 11.8897 25.4485 11.4049 24.9643L7.03118 20.5888C6.54091 20.0985 6.3314 19.3873 6.48114 18.7352C8.80567 8.42575 17.6461 1.49805 28.476 1.49805C29.5936 1.50408 30.4962 2.40673 30.4902 3.51224C30.5023 9.75224 28.2007 15.4851 24.0346 19.6505Z" fill="#E4E3FF"/>
<path opacity="0.6" d="M8.69182 16.544C9.08804 15.2281 9.62657 13.9593 10.2979 12.7602C10.3384 12.687 10.393 12.6226 10.4585 12.5707C10.524 12.5187 10.5991 12.4802 10.6796 12.4575C10.76 12.4347 10.8442 12.428 10.9272 12.4379C11.0102 12.4477 11.0905 12.4739 11.1634 12.5149C11.2362 12.5559 11.3002 12.611 11.3518 12.6768C11.4033 12.7427 11.4412 12.8181 11.4635 12.8987C11.4858 12.9793 11.4918 13.0635 11.4814 13.1464C11.471 13.2294 11.4443 13.3095 11.4028 13.3821C10.7766 14.5002 10.2745 15.6834 9.9054 16.9105C9.85449 17.0687 9.74353 17.2005 9.59639 17.2777C9.44926 17.3549 9.27771 17.3712 9.11866 17.3232C8.95961 17.2751 8.82577 17.1666 8.74594 17.0209C8.66611 16.8752 8.64668 16.7039 8.69182 16.544ZM12.0778 11.0569C11.967 10.9458 11.9014 10.7976 11.8936 10.6409C11.8858 10.4842 11.9363 10.3302 12.0355 10.2086C12.2831 9.90494 12.5409 9.60909 12.8065 9.3235C12.9211 9.20062 13.0797 9.12823 13.2476 9.12223C13.4155 9.11623 13.5789 9.17711 13.7019 9.2915C13.9628 9.51248 13.973 9.9315 13.7351 10.1869C13.4876 10.4532 13.2479 10.7273 13.0179 11.0098C12.9618 11.0786 12.8919 11.1348 12.8127 11.1749C12.7336 11.2149 12.6469 11.2379 12.5583 11.2423C12.4697 11.2468 12.3811 11.2326 12.2984 11.2006C12.2156 11.1687 12.1404 11.1197 12.0778 11.0569Z" fill="white"/>
<path d="M24.0348 19.6504C21.13 22.5552 17.4005 24.5875 13.2526 25.5197C12.5945 25.6634 11.8899 25.4484 11.405 24.9642L10.1504 23.7084C10.6346 24.1932 11.3398 24.4081 11.9973 24.2644C16.1453 23.3322 19.8748 21.2999 22.7795 18.3958C26.9456 14.2297 29.2459 8.49749 29.2345 2.2581C29.2345 2.03048 29.1982 1.81553 29.127 1.61206C29.9276 1.88738 30.4958 2.63425 30.4897 3.51274C30.5018 9.75274 28.2008 15.485 24.0348 19.6504Z" fill="#D0D0F7"/>
<path d="M6.85517 17.3525C6.72234 17.8096 6.5877 18.2654 6.48083 18.7364C6.3317 19.3879 6.54121 20.0991 7.03147 20.5894L11.4064 24.9643C11.8906 25.4485 12.5958 25.6635 13.2534 25.5198C13.7246 25.4125 14.1923 25.2905 14.6559 25.1539L6.85517 17.3531V17.3525Z" fill="#FFB30F"/>
<path d="M14.6576 25.1549C14.1915 25.2866 13.7314 25.4121 13.2532 25.5196C12.5951 25.6633 11.8905 25.4484 11.4057 24.9641L10.1094 23.6672C10.593 24.1509 11.2988 24.3664 11.9557 24.2227C12.4272 24.1138 12.8957 23.9922 13.3607 23.858L14.6576 25.1549Z" fill="#E8A30E"/>
<path d="M29.4751 10.5038C30.1574 8.23649 30.4997 5.88049 30.4906 3.51272C30.4967 2.40782 29.594 1.50457 28.4764 1.49854C26.0311 1.49854 23.6957 1.86925 21.5059 2.53461L29.4757 10.5044L29.4751 10.5038Z" fill="#FFB30F"/>
<path d="M29.4735 10.5057L28.2539 9.28664C28.9372 7.01909 29.2796 4.66258 29.2701 2.29434C29.2701 2.05525 29.2284 1.83427 29.1505 1.62476C29.5428 1.76034 29.8829 2.01529 30.1231 2.35386C30.3632 2.69244 30.4914 3.09766 30.4897 3.51276C30.4957 5.94596 30.1431 8.29464 29.4735 10.5063V10.5057Z" fill="#E8A30E"/>
<path d="M23.8982 15.3352C21.9069 17.3265 18.6768 17.3265 16.6789 15.3286C15.7227 14.372 15.1855 13.0748 15.1855 11.7223C15.1855 10.3697 15.7227 9.07252 16.6789 8.11591C18.6774 6.11742 21.9075 6.11742 23.8982 8.10927C24.3732 8.58342 24.7501 9.14659 25.0072 9.76655C25.2643 10.3865 25.3966 11.0511 25.3966 11.7223C25.3966 12.3934 25.2643 13.058 25.0072 13.6779C24.7501 14.2979 24.3732 14.8611 23.8982 15.3352Z" fill="#474646"/>
<path opacity="0.3" d="M17.7808 8.58319C17.7591 8.56154 17.7424 8.53542 17.7318 8.50664C17.7212 8.47787 17.717 8.44714 17.7194 8.41658C17.7219 8.38602 17.731 8.35636 17.7461 8.32967C17.7612 8.30297 17.7819 8.27988 17.8068 8.26199C18.3238 7.88791 18.9182 7.63477 19.5462 7.52128C20.1742 7.40778 20.8196 7.43684 21.4348 7.60629C21.4616 7.61358 21.4867 7.62608 21.5086 7.64306C21.5305 7.66004 21.5489 7.68117 21.5627 7.70525C21.5764 7.72933 21.5853 7.75588 21.5888 7.7834C21.5923 7.81091 21.5904 7.83885 21.5831 7.86561C21.5758 7.89237 21.5633 7.91743 21.5463 7.93936C21.5293 7.96129 21.5082 7.97966 21.4841 7.99343C21.46 8.00719 21.4335 8.01608 21.406 8.01958C21.3784 8.02308 21.3505 8.02113 21.3238 8.01383C20.7691 7.86125 20.1873 7.83515 19.6212 7.93746C19.0551 8.03976 18.5193 8.26786 18.0531 8.60493C18.0125 8.63412 17.9628 8.64795 17.913 8.64397C17.8631 8.63999 17.8163 8.61846 17.7808 8.58319ZM22.4365 8.51859C22.3984 8.48145 22.3756 8.43129 22.3729 8.37813C22.3701 8.32497 22.3875 8.27272 22.4216 8.23184C22.4557 8.19095 22.504 8.16445 22.5568 8.15761C22.6096 8.15077 22.663 8.16412 22.7064 8.19497C22.9231 8.3441 23.126 8.51376 23.3102 8.69791C23.3929 8.78002 23.3947 8.91648 23.3126 8.99859C23.2897 9.02007 23.2625 9.03634 23.2328 9.04627C23.203 9.0562 23.1715 9.05956 23.1403 9.05612C23.1091 9.05267 23.0791 9.04251 23.0522 9.02632C23.0254 9.01013 23.0023 8.98831 22.9847 8.96236C22.8229 8.80956 22.6495 8.66947 22.4661 8.54334C22.4555 8.53604 22.4456 8.52775 22.4365 8.51859Z" fill="white"/>
<path d="M23.891 15.3358C21.901 17.3259 18.6732 17.3259 16.6771 15.3298C16.1554 14.8095 15.7535 14.1815 15.4996 13.4898C15.2456 12.7981 15.1458 12.0593 15.2069 11.325C15.2329 12.6253 15.7646 13.8644 16.6892 14.7791C17.1628 15.2548 17.7256 15.6324 18.3453 15.8902C18.9651 16.1481 19.6297 16.2811 20.3009 16.2816C20.9722 16.2822 21.6369 16.1503 22.2571 15.8935C22.8773 15.6367 23.4408 15.2601 23.9151 14.7852C24.754 13.9486 25.2741 12.845 25.3853 11.6655C25.3968 12.3464 25.2704 13.0225 25.0136 13.6532C24.7567 14.2839 24.3749 14.8561 23.891 15.3352V15.3358Z" fill="#2D2C2C"/>
<path d="M22.3805 13.8112C22.1061 14.0865 21.7801 14.305 21.4211 14.454C21.0621 14.6031 20.6772 14.6798 20.2885 14.6798C19.8998 14.6798 19.5149 14.6031 19.1559 14.454C18.7968 14.305 18.4708 14.0865 18.1964 13.8112C17.9285 13.5455 17.7169 13.2284 17.5745 12.879C17.4614 12.6332 17.3888 12.3708 17.3596 12.1019C17.3179 11.8205 17.3294 11.5344 17.3777 11.259C17.4731 10.6613 17.7484 10.0877 18.2024 9.63307C19.3556 8.47986 21.2273 8.47382 22.3805 9.62703C22.5061 9.75261 22.6196 9.89027 22.715 10.034C22.8823 10.261 23.0079 10.5176 23.0918 10.7808C23.1812 11.038 23.2349 11.3067 23.2409 11.5754C23.2673 12.0599 23.1707 12.5432 22.9602 12.9804C22.8225 13.2853 22.6257 13.566 22.3805 13.8112Z" fill="#A2A2F9"/>
<path opacity="0.3" d="M23.0918 10.7809L17.3596 12.102C17.3179 11.8206 17.3294 11.5344 17.3777 11.2591L22.715 10.0334C22.8823 10.2611 23.0079 10.5177 23.0918 10.7809ZM22.9602 12.9805L18.4295 14.0202C18.349 13.9537 18.2712 13.884 18.1964 13.8113C17.9285 13.5455 17.7169 13.2285 17.5745 12.879L23.2409 11.5755C23.2673 12.06 23.1707 12.5433 22.9602 12.9805Z" fill="white"/>
<path d="M23.1558 12.4122C23.1554 12.0297 23.079 11.6509 22.9313 11.2981C22.7835 10.9452 22.5671 10.6251 22.2948 10.3564C21.1416 9.20318 19.2705 9.20922 18.1167 10.3624C17.7326 10.747 17.4636 11.2314 17.3402 11.7608C17.3337 11.3666 17.4066 10.9751 17.5544 10.6095C17.7022 10.244 17.9219 9.91196 18.2006 9.63307C19.3538 8.47986 21.2255 8.47382 22.3787 9.62703C22.7391 9.98375 23.0003 10.4282 23.1365 10.9166C23.2728 11.405 23.2794 11.9205 23.1558 12.4122Z" fill="#5E5EEF"/>
</svg>
