<svg width="49" height="48" viewBox="0 0 49 48" fill="none" xmlns="http://www.w3.org/2000/svg">
<rect x="0.599609" width="48" height="48" rx="24" fill="#F0F0F1"/>
<path d="M22.8853 21.4224C21.4179 21.2147 19.9221 21.4605 18.5984 22.1271C17.2747 22.7936 16.1865 23.8489 15.4796 25.1515C14.7727 26.454 14.4809 27.9416 14.6434 29.4147C14.806 30.8878 15.415 32.2759 16.3889 33.3931C17.3627 34.5102 18.6548 35.3029 20.092 35.6648C21.5291 36.0267 23.0426 35.9406 24.4294 35.418C25.8162 34.8954 27.0101 33.9612 27.8509 32.7408C28.6918 31.5204 29.1394 30.0721 29.1338 28.5901V20.6398C30.7275 21.7799 32.6401 22.3884 34.5996 22.3789V18.4659C33.15 18.4659 31.7597 17.89 30.7347 16.8649C29.7096 15.8399 29.1338 14.4496 29.1338 13H25.1834V28.6274C25.182 29.3287 24.9587 30.0117 24.5455 30.5784C24.1323 31.1451 23.5504 31.5666 22.883 31.7824C22.2157 31.9982 21.4972 31.9974 20.8304 31.78C20.1635 31.5625 19.5826 31.1397 19.1708 30.572C18.7589 30.0043 18.5372 29.3208 18.5375 28.6195C18.5377 27.9181 18.7599 27.2348 19.1722 26.6674C19.5844 26.1 20.1657 25.6776 20.8326 25.4606C21.4996 25.2437 22.2181 25.2433 22.8853 25.4597V21.4224Z" fill="black"/>
</svg>
