<svg width="49" height="48" viewBox="0 0 49 48" fill="none" xmlns="http://www.w3.org/2000/svg">
<rect x="0.400391" width="48" height="48" rx="24" fill="#D6ECF9"/>
<path d="M24.4009 20.2501C24.4009 18.1876 26.1353 16.472 28.1978 16.5001C28.9201 16.5084 29.6246 16.7252 30.2266 17.1244C30.8287 17.5235 31.3026 18.088 31.5915 18.7501H34.9009L31.8728 21.7782C31.6774 24.82 30.3308 27.6732 28.107 29.7577C25.8832 31.8422 22.949 33.0016 19.9009 33.0001C16.9009 33.0001 16.1509 31.8751 16.1509 31.8751C16.1509 31.8751 19.1509 30.7501 20.6509 28.5001C20.6509 28.5001 14.6509 25.5001 16.1509 17.2501C16.1509 17.2501 19.9009 21.0001 24.4009 21.7501V20.2501Z" stroke="#1DA1F2" stroke-width="2" stroke-linecap="round" stroke-linejoin="round"/>
</svg>
